<svg xmlns="http://www.w3.org/2000/svg" width="50" height="47" viewBox="0 0 50 47">
    <g fill="none" fill-rule="evenodd" opacity=".602">
        <g fill="#FFF">
            <path d="M706.015 877.405v5.121h3.479v3.239h-3.48v8.887c.012 1.309.782 1.582 1.816 1.582.75 0 1.664-.15 1.664-.15v3.69c-.402.056-1.82.226-2.723.226-2.318 0-5.522-.632-5.522-3.992v-10.243h-2.874v-3.239h2.874v-5.121h4.766zm-23.253 0c3.8 0 6.551 3.322 6.551 7.305 0 9.442-13.102 15.29-13.102 15.29s-13.103-5.848-13.103-15.29c0-3.983 2.49-7.305 6.552-7.305 4.061 0 6.55 3.314 6.55 3.314s2.752-3.314 6.552-3.314zm14.63 5.121v17.248h-4.765v-17.248h4.765zm0-5.121v3.916h-4.765v-3.916h4.765zm3.4-24.404h.298c6.246.1 9.91 4.358 9.91 12.17 0 0-13.802.023-14.64 0 .033 1.305.392 5.062 5.03 5.064 3.086-.002 4.355-2.34 4.355-2.646h4.88c0 1.15-2.65 6.803-9.46 6.803-8.92 0-10.276-7.612-10.285-10.658-.018-5.756 4.028-10.83 10.21-10.733zm-33.936.605l3.754 13.832 3.378-13.832h5.405l3.529 13.756 3.679-13.756h5.705l-6.381 20.332h-5.706l-3.678-13.68-3.379 13.68h-5.78L661 853.606h5.856zm34.159 3.704c-4.538.063-4.655 4.038-4.655 4.308h9.385c0-.604-.908-4.361-4.73-4.308z" transform="translate(-661 -853)"/>
        </g>
    </g>
</svg>
